<?xml version="1.0" standalone="no"?>
<!DOCTYPE svg PUBLIC "-//W3C//DTD SVG 20010904//EN"
 "http://www.w3.org/TR/2001/REC-SVG-20010904/DTD/svg10.dtd">
<svg version="1.0" xmlns="http://www.w3.org/2000/svg"
 width="820.000000pt" height="463.000000pt" viewBox="0 0 820.000000 463.000000"
 preserveAspectRatio="xMidYMid meet">
<metadata>
Created by potrace 1.16, written by Peter Selinger 2001-2019
</metadata>
<g transform="translate(0.000000,463.000000) scale(0.100000,-0.100000)"
fill="#000000" stroke="none">
<path d="M4052 4618 c-9 -9 -12 -111 -12 -400 l0 -387 -47 -21 c-63 -28 -100
-64 -129 -125 -21 -43 -24 -65 -24 -160 l0 -110 -66 -19 c-264 -76 -516 -291
-647 -551 -43 -87 -84 -216 -99 -312 l-12 -73 -142 0 -142 0 -31 -31 -31 -31
0 -164 0 -164 -577 0 c-646 0 -630 2 -665 -70 -17 -32 -18 -93 -18 -817 l0
-781 -30 -7 c-16 -4 -41 -20 -55 -37 -24 -28 -25 -35 -25 -165 l0 -135 29 -29
29 -29 2742 0 2742 0 29 29 29 29 0 135 c0 130 -1 137 -25 165 -14 17 -39 33
-55 37 l-30 7 -1 776 c0 575 -3 786 -12 811 -7 19 -25 44 -40 55 -28 21 -37
21 -618 24 l-589 2 0 156 c0 230 -3 233 -206 234 l-140 0 -12 73 c-42 271
-197 528 -421 698 -82 61 -234 139 -323 165 l-68 19 0 100 c0 55 -5 117 -10
137 -17 61 -69 120 -133 152 l-57 28 0 138 0 138 56 7 c67 8 98 4 288 -42 132
-31 161 -35 245 -31 53 3 108 10 124 16 l27 12 0 224 0 225 -42 -16 c-76 -29
-193 -22 -361 21 -129 33 -160 37 -242 34 l-95 -3 0 26 c0 35 -18 49 -60 49
-20 0 -41 -5 -48 -12z m678 -2359 c311 -182 576 -341 588 -353 13 -11 34 -39
45 -61 22 -40 22 -45 25 -743 l3 -702 -56 0 -55 0 0 683 c0 638 -2 685 -19
722 -17 38 -44 56 -567 360 -500 291 -553 320 -594 320 -41 0 -94 -29 -594
-320 -523 -304 -550 -322 -567 -360 -17 -37 -19 -84 -19 -722 l0 -683 -50 0
-50 0 0 710 c0 679 1 712 19 748 10 20 30 47 43 59 12 12 279 168 592 347
l568 326 62 0 62 0 564 -331z m-2760 -754 l0 -275 -135 0 -135 0 0 275 0 275
135 0 135 0 0 -275z m560 0 l0 -275 -135 0 -135 0 0 275 0 275 135 0 135 0 0
-275z m935 264 c25 -7 58 -29 86 -58 29 -28 51 -61 58 -86 7 -27 11 -230 11
-632 l0 -593 -215 0 -215 0 0 593 c0 394 4 605 11 631 14 50 83 123 134 141
49 17 78 18 130 4z m726 -16 c35 -19 64 -43 84 -71 l30 -44 3 -619 2 -619
-210 0 -210 0 2 619 3 619 30 44 c35 51 120 98 175 98 20 0 61 -12 91 -27z
m664 16 c25 -7 58 -29 86 -58 29 -28 51 -61 58 -86 7 -27 11 -230 11 -632 l0
-593 -215 0 -215 0 0 593 c0 394 4 605 11 631 14 50 83 123 134 141 49 17 78
18 130 4z m1085 -264 l0 -275 -135 0 -135 0 0 275 0 275 135 0 135 0 0 -275z
m560 0 l0 -275 -135 0 -135 0 0 275 0 275 135 0 135 0 0 -275z m-4530 -830 l0
-275 -135 0 -135 0 0 275 0 275 135 0 135 0 0 -275z m560 0 l0 -275 -135 0
-135 0 0 275 0 275 135 0 135 0 0 -275z m3410 0 l0 -275 -135 0 -135 0 0 275
0 275 135 0 135 0 0 -275z m560 0 l0 -275 -135 0 -135 0 0 275 0 275 135 0
135 0 0 -275z"/>
</g>
</svg>
