<?xml version="1.0" standalone="no"?>
<!DOCTYPE svg PUBLIC "-//W3C//DTD SVG 20010904//EN"
 "http://www.w3.org/TR/2001/REC-SVG-20010904/DTD/svg10.dtd">
<svg version="1.0" xmlns="http://www.w3.org/2000/svg"
 width="141.000000pt" height="238.000000pt" viewBox="0 0 141.000000 238.000000"
 preserveAspectRatio="xMidYMid meet">
<metadata>
Created by potrace 1.16, written by Peter Selinger 2001-2019
</metadata>
<g transform="translate(0.000000,238.000000) scale(0.100000,-0.100000)"
fill="#000000" stroke="none">
<path d="M762 2273 c-34 -13 -33 -41 7 -140 121 -299 181 -620 181 -958 0
-336 -52 -616 -177 -952 l-47 -126 22 -17 c38 -31 190 -36 245 -8 37 19 144
266 201 466 66 233 81 345 80 632 0 272 -8 350 -60 555 -47 187 -175 516 -211
543 -17 12 -213 17 -241 5z"/>
<path d="M173 1660 c-50 -30 -63 -66 -63 -172 0 -105 10 -132 59 -165 29 -19
47 -23 116 -23 69 0 87 4 116 23 50 34 64 69 63 167 -1 146 -42 190 -179 190
-62 0 -87 -5 -112 -20z"/>
<path d="M225 861 c-91 -16 -115 -57 -115 -194 0 -81 3 -99 23 -128 30 -45 82
-62 174 -56 123 7 156 47 157 187 1 97 -17 146 -62 172 -33 19 -122 28 -177
19z"/>
</g>
</svg>
