<svg id="svg" version="1.1" xmlns="http://www.w3.org/2000/svg" xmlns:xlink="http://www.w3.org/1999/xlink" width="400" height="267.8048780487805" viewBox="0, 0, 400,267.8048780487805"><g id="svgg"><path id="path0" d="M93.902 22.311 C 90.951 23.274,88.402 24.264,88.238 24.512 C 88.074 24.759,87.782 24.915,87.590 24.859 C 86.855 24.644,80.113 29.353,77.291 32.053 C 73.981 35.220,70.582 40.568,69.049 45.019 C 68.251 47.336,67.763 48.055,66.819 48.310 C 66.154 48.489,64.667 49.091,63.516 49.649 C 62.364 50.207,60.772 50.806,59.979 50.980 C 59.186 51.154,58.537 51.484,58.537 51.713 C 58.537 51.942,58.043 52.284,57.439 52.472 C 56.835 52.660,55.244 53.718,53.902 54.822 C 52.561 55.926,51.164 57.049,50.798 57.317 C 48.758 58.812,44.115 64.008,42.843 66.219 C 42.033 67.628,41.172 68.903,40.929 69.053 C 40.686 69.203,40.488 69.849,40.488 70.488 C 40.488 71.127,40.301 71.765,40.072 71.907 C 38.198 73.065,36.579 86.194,37.720 90.976 C 37.912 91.780,38.197 93.098,38.354 93.902 C 38.511 94.707,38.975 96.089,39.385 96.972 C 40.102 98.516,39.159 101.951,38.018 101.951 C 37.115 101.951,32.036 113.637,30.672 118.852 C 29.119 124.790,28.772 133.182,29.999 135.122 C 30.254 135.524,30.471 136.073,30.483 136.341 C 30.581 138.684,32.775 144.790,35.214 149.512 C 37.469 153.878,43.845 161.506,47.561 164.283 C 52.448 167.935,54.372 169.268,54.757 169.268 C 54.996 169.268,56.218 169.872,57.473 170.610 C 58.727 171.348,60.523 172.236,61.462 172.585 C 64.608 173.751,70.895 175.610,71.696 175.610 C 73.962 175.610,74.998 176.730,75.289 179.496 C 75.446 180.981,76.039 183.512,76.607 185.122 C 77.175 186.732,77.691 188.268,77.753 188.537 C 78.020 189.689,80.042 193.627,80.517 193.920 C 80.802 194.097,81.240 194.714,81.489 195.291 C 81.738 195.869,82.278 196.802,82.688 197.365 C 83.430 198.381,83.401 198.391,78.607 198.705 C 62.470 199.763,50.109 208.365,50.110 218.537 C 50.110 220.840,49.553 221.774,47.940 222.177 C 42.609 223.507,36.133 234.741,39.498 236.821 C 39.759 236.982,40.119 238.224,40.299 239.582 C 40.915 244.223,45.361 247.386,51.508 247.555 C 53.410 247.608,55.166 247.754,55.410 247.881 C 56.062 248.219,63.329 248.053,63.690 247.692 C 63.859 247.523,64.271 247.489,64.604 247.617 C 66.361 248.291,74.422 244.201,77.317 241.166 C 79.208 239.183,79.382 239.113,82.927 238.890 C 98.808 237.894,109.610 229.804,109.900 218.688 C 110.015 214.303,109.274 214.645,116.671 215.566 C 121.397 216.155,128.820 215.731,133.171 214.624 C 134.110 214.386,136.085 213.883,137.561 213.509 C 139.037 213.134,141.168 212.356,142.298 211.780 C 143.427 211.203,144.448 210.732,144.567 210.732 C 144.938 210.732,146.829 214.171,146.829 214.846 C 146.829 215.200,147.122 215.734,147.481 216.031 C 147.839 216.328,148.632 217.542,149.242 218.729 C 149.852 219.915,151.041 221.657,151.883 222.599 C 152.725 223.540,154.151 225.207,155.051 226.302 C 155.951 227.397,156.993 228.293,157.368 228.293 C 157.742 228.293,158.058 228.567,158.069 228.902 C 158.081 229.238,158.904 230.049,159.899 230.704 C 160.893 231.360,163.463 233.061,165.609 234.485 C 167.755 235.908,169.844 237.073,170.251 237.073 C 170.657 237.073,171.840 237.528,172.878 238.085 C 180.042 241.925,194.789 243.876,204.235 242.235 C 214.073 240.526,217.299 239.526,223.555 236.246 C 224.303 235.853,225.408 235.275,226.010 234.961 C 228.832 233.488,234.207 229.275,237.113 226.259 C 240.387 222.860,240.839 222.607,242.324 223.351 C 255.769 230.088,269.908 231.213,289.512 227.109 C 292.284 226.528,293.775 226.044,295.823 225.060 C 297.148 224.423,298.629 223.902,299.116 223.902 C 299.602 223.902,300.000 223.707,300.000 223.468 C 300.000 223.228,300.541 222.897,301.203 222.731 C 301.864 222.565,303.377 221.773,304.566 220.971 C 305.754 220.168,306.875 219.512,307.056 219.512 C 307.238 219.512,308.413 218.648,309.669 217.591 C 310.924 216.534,312.853 215.052,313.955 214.298 C 316.143 212.802,320.935 207.617,322.704 204.833 L 323.818 203.081 329.407 202.781 C 346.359 201.873,360.987 189.520,362.847 174.544 C 363.308 170.827,363.288 170.412,362.388 165.122 C 361.815 161.757,358.582 154.818,356.812 153.154 C 355.496 151.918,355.204 150.244,356.305 150.244 C 357.982 150.244,365.514 141.608,367.483 137.427 C 372.234 127.338,370.999 114.351,364.620 107.302 C 364.225 106.865,363.902 106.371,363.902 106.203 C 363.902 105.414,355.864 98.537,354.941 98.537 C 354.680 98.537,354.121 98.229,353.697 97.853 C 352.414 96.715,346.768 94.503,343.659 93.919 L 340.732 93.370 340.605 90.953 C 339.945 78.326,337.621 70.009,333.187 64.411 C 332.373 63.383,331.707 62.327,331.707 62.063 C 331.707 61.392,324.118 54.030,321.463 52.127 C 320.256 51.261,318.955 50.241,318.573 49.860 C 317.837 49.126,307.317 43.813,307.317 44.174 C 307.317 44.291,306.165 43.940,304.756 43.394 C 303.348 42.848,301.098 42.170,299.756 41.887 C 298.415 41.603,296.768 41.249,296.098 41.099 C 294.159 40.665,277.537 40.388,276.653 40.775 C 276.213 40.968,275.634 41.157,275.366 41.197 C 273.266 41.504,270.524 42.188,268.049 43.021 C 266.439 43.563,264.902 44.054,264.634 44.112 C 264.366 44.170,263.287 44.590,262.236 45.045 C 260.299 45.883,258.049 44.916,258.049 43.246 C 258.049 41.667,244.490 31.220,242.441 31.220 C 242.238 31.220,240.893 30.698,239.450 30.060 C 237.172 29.052,234.895 28.433,229.756 27.425 C 227.643 27.010,216.485 26.762,215.664 27.111 C 215.232 27.295,214.242 27.528,213.465 27.629 C 209.337 28.165,200.889 31.649,195.212 35.156 C 194.146 35.815,193.995 35.744,192.529 33.902 C 191.675 32.829,190.458 31.512,189.825 30.976 C 189.192 30.439,187.848 29.287,186.839 28.415 C 185.830 27.543,184.856 26.829,184.677 26.829 C 184.497 26.829,183.935 26.443,183.429 25.972 C 182.361 24.977,173.911 21.550,171.872 21.284 C 171.111 21.185,170.134 20.953,169.701 20.769 C 167.852 19.983,155.446 20.750,151.951 21.867 C 150.073 22.468,148.317 23.018,148.049 23.091 C 146.517 23.508,143.074 25.324,142.501 26.018 C 142.133 26.464,141.616 26.829,141.352 26.829 C 141.087 26.829,139.769 27.707,138.421 28.780 C 135.856 30.823,135.364 31.030,134.894 30.270 C 134.513 29.654,130.309 26.829,129.772 26.829 C 129.540 26.829,129.276 26.665,129.187 26.463 C 128.917 25.856,126.034 24.400,123.054 23.367 C 112.484 19.702,102.957 19.357,93.902 22.311 M110.976 24.393 C 112.854 24.646,114.939 24.988,115.610 25.151 C 116.280 25.315,117.598 25.630,118.537 25.851 C 120.971 26.424,125.700 28.490,126.748 29.438 C 127.237 29.881,127.988 30.244,128.415 30.244 C 129.321 30.244,138.529 39.217,138.552 40.122 C 138.598 41.938,139.883 42.606,141.687 41.750 C 143.816 40.739,143.872 41.133,141.027 37.145 L 138.639 33.798 140.814 31.899 C 142.843 30.129,145.662 28.482,149.756 26.677 C 152.798 25.336,159.157 24.198,163.415 24.232 C 170.072 24.285,174.435 25.624,182.826 30.189 C 184.940 31.339,190.677 37.413,191.023 38.868 C 191.203 39.625,191.607 40.573,191.921 40.976 C 192.234 41.378,192.918 42.638,193.440 43.775 C 195.252 47.719,198.427 46.310,196.876 42.249 C 196.434 41.092,196.192 39.838,196.338 39.463 C 196.800 38.274,207.237 32.827,208.492 33.119 C 208.736 33.176,209.065 33.040,209.224 32.817 C 210.893 30.474,230.449 30.364,235.854 32.667 C 245.468 36.765,245.780 36.953,251.248 41.951 C 256.944 47.157,257.126 47.507,254.765 48.721 C 253.754 49.241,252.282 50.345,251.494 51.175 C 250.706 52.004,249.786 52.683,249.450 52.683 C 248.370 52.683,248.319 53.444,249.294 55.047 C 250.378 56.829,251.701 56.527,254.109 53.949 C 254.760 53.253,255.516 52.683,255.791 52.683 C 256.065 52.683,257.085 52.132,258.057 51.458 C 259.856 50.211,268.461 46.511,270.398 46.151 C 270.984 46.042,273.220 45.564,275.366 45.088 C 280.437 43.964,290.498 43.950,295.610 45.059 C 297.622 45.496,299.707 45.860,300.244 45.870 C 300.780 45.879,302.098 46.311,303.171 46.829 C 304.244 47.348,305.462 47.779,305.878 47.788 C 306.294 47.797,306.843 47.991,307.098 48.219 C 307.352 48.447,308.474 48.986,309.591 49.418 C 315.231 51.595,323.320 57.947,327.995 63.869 C 330.414 66.933,334.264 73.647,334.079 74.481 C 334.031 74.699,334.125 75.207,334.289 75.610 C 336.830 81.851,337.404 94.028,335.380 98.729 C 334.490 100.796,334.683 101.161,336.987 101.773 C 338.440 102.160,338.985 101.587,339.162 99.490 L 339.303 97.805 342.213 97.841 C 345.098 97.878,350.206 99.800,352.992 101.899 C 353.565 102.330,354.542 103.012,355.164 103.415 C 362.801 108.357,367.844 119.700,366.314 128.491 C 366.005 130.263,365.556 131.834,365.315 131.982 C 365.075 132.131,364.878 132.782,364.878 133.429 C 364.878 134.699,361.058 140.636,358.442 143.430 C 353.189 149.041,342.984 153.152,334.268 153.167 C 332.225 153.171,332.195 153.195,332.195 154.878 L 332.195 156.585 335.822 156.585 C 340.573 156.585,346.196 155.405,350.835 153.435 C 351.882 152.991,353.512 154.675,355.704 158.468 C 358.666 163.593,358.692 163.698,358.727 170.976 L 358.759 177.805 356.450 181.887 C 352.900 188.162,346.543 194.634,343.929 194.634 C 343.646 194.634,343.415 194.821,343.415 195.049 C 343.415 195.847,334.412 198.432,330.732 198.690 C 327.428 198.921,322.536 198.575,317.383 197.745 C 313.939 197.190,313.380 200.317,316.707 201.530 C 317.916 201.970,318.780 202.598,318.780 203.033 C 318.780 204.135,313.822 209.591,310.732 211.890 C 304.782 216.315,303.465 217.151,298.780 219.473 C 291.533 223.066,283.942 225.005,274.634 225.640 C 272.890 225.760,271.024 225.925,270.488 226.007 C 269.951 226.090,269.293 226.034,269.024 225.884 C 268.756 225.733,267.439 225.567,266.098 225.515 C 260.912 225.313,258.054 224.750,251.381 222.618 C 242.233 219.695,242.532 219.997,244.909 216.098 L 246.842 212.927 245.806 212.073 C 244.479 210.980,242.986 210.980,242.575 212.073 C 241.556 214.785,235.230 223.024,231.951 225.910 C 228.692 228.780,225.354 231.220,224.689 231.220 C 224.301 231.220,223.911 231.384,223.821 231.585 C 222.840 233.793,205.419 239.112,200.411 238.732 C 199.275 238.646,198.114 238.753,197.832 238.971 C 197.549 239.189,196.549 239.302,195.610 239.222 C 194.671 239.142,192.296 238.965,190.333 238.828 C 183.887 238.380,168.086 232.689,165.868 230.018 C 165.526 229.606,164.995 229.268,164.687 229.268 C 164.111 229.268,159.990 225.879,158.459 224.146 C 157.985 223.610,156.711 222.192,155.628 220.995 C 154.545 219.799,153.659 218.644,153.659 218.430 C 153.659 218.216,153.000 217.131,152.195 216.020 C 151.390 214.909,150.732 213.792,150.732 213.539 C 150.732 213.285,150.327 212.495,149.832 211.783 C 148.797 210.292,146.579 203.661,146.097 200.612 C 145.715 198.200,145.562 198.053,143.778 198.394 C 142.392 198.659,141.668 203.369,142.897 204.128 C 143.921 204.761,143.162 207.064,141.697 207.770 C 137.697 209.698,132.417 211.220,129.729 211.220 C 128.166 211.220,126.785 211.384,126.661 211.585 C 126.404 212.000,117.220 211.988,116.098 211.572 C 115.695 211.423,114.133 211.191,112.626 211.058 C 109.319 210.765,106.124 209.341,104.146 207.277 C 101.372 204.382,94.130 200.488,91.520 200.488 C 89.180 200.488,80.488 187.732,80.488 184.298 C 80.488 183.902,80.342 183.432,80.165 183.254 C 79.548 182.637,79.282 179.726,79.288 173.659 C 79.294 167.392,79.439 166.117,80.412 163.749 C 80.722 162.993,80.976 162.090,80.976 161.741 C 80.976 161.393,81.435 160.523,81.996 159.810 C 82.557 159.096,83.057 158.243,83.106 157.915 C 83.375 156.115,92.717 145.366,94.013 145.366 C 94.310 145.366,94.626 145.201,94.715 145.000 C 95.001 144.357,97.730 142.624,100.122 141.567 C 101.396 141.004,102.439 140.447,102.439 140.331 C 102.439 140.214,102.116 139.346,101.721 138.401 L 101.003 136.683 97.697 138.425 C 91.750 141.557,83.313 149.208,81.002 153.565 C 80.585 154.351,79.756 155.880,79.160 156.964 C 77.046 160.804,75.143 167.131,75.130 170.366 C 75.125 171.372,74.920 172.195,74.673 172.195 C 72.316 172.195,63.155 169.349,60.262 167.719 C 59.735 167.422,58.198 166.599,56.847 165.891 C 53.586 164.181,51.854 163.008,49.774 161.100 C 48.825 160.229,47.917 159.516,47.755 159.515 C 47.593 159.513,46.386 158.142,45.072 156.467 C 43.758 154.792,42.289 153.026,41.807 152.542 C 40.301 151.030,37.096 145.084,35.704 141.220 C 33.457 134.979,32.904 126.296,34.369 120.244 C 34.823 118.366,35.284 116.390,35.394 115.854 C 35.582 114.929,37.172 111.338,38.093 109.756 C 38.328 109.354,38.951 108.127,39.479 107.031 C 41.397 103.051,42.462 103.034,45.057 106.943 C 48.934 112.783,52.270 115.016,53.861 112.835 L 54.796 111.554 53.373 110.272 C 44.527 102.303,39.805 90.843,41.487 81.427 C 41.794 79.703,42.147 77.634,42.270 76.829 C 42.912 72.625,51.684 59.512,53.855 59.512 C 54.011 59.512,55.163 58.730,56.416 57.773 C 61.802 53.662,66.935 52.221,67.226 54.738 C 67.365 55.942,67.518 56.034,68.933 55.765 C 70.805 55.409,70.332 56.363,71.899 49.792 C 74.611 38.421,84.502 28.171,95.059 25.789 C 96.033 25.570,98.146 25.074,99.756 24.687 C 103.239 23.851,106.348 23.769,110.976 24.393 M87.317 203.347 C 87.317 203.578,88.360 203.893,89.634 204.047 C 100.798 205.397,109.774 217.451,104.634 224.190 C 103.963 225.069,103.415 225.911,103.415 226.061 C 103.415 226.532,101.308 228.780,100.866 228.780 C 100.635 228.780,99.853 229.329,99.130 230.000 C 98.407 230.671,97.530 231.220,97.183 231.220 C 96.835 231.220,96.065 231.536,95.471 231.922 C 93.825 232.992,86.384 235.012,83.399 235.199 L 80.747 235.366 80.466 233.415 C 79.238 224.893,69.279 219.032,57.011 219.610 L 53.902 219.756 54.004 217.978 C 54.098 216.334,54.954 214.394,56.889 211.441 C 58.679 208.709,66.287 204.538,70.380 204.044 C 71.662 203.890,72.828 203.575,72.970 203.345 C 73.308 202.797,87.317 202.799,87.317 203.347 M68.923 225.322 C 73.632 227.529,75.542 229.529,76.320 233.071 C 76.807 235.290,74.070 240.488,72.414 240.488 C 72.091 240.488,71.554 240.817,71.220 241.220 C 70.886 241.622,70.090 241.951,69.452 241.951 C 68.815 241.951,68.293 242.125,68.293 242.338 C 68.293 242.772,64.411 243.902,62.920 243.902 C 61.786 243.902,61.779 243.860,62.516 241.398 C 63.729 237.349,61.137 233.754,55.762 232.031 C 53.007 231.148,49.489 230.956,49.051 231.665 C 48.899 231.910,47.898 232.258,46.827 232.439 C 45.755 232.621,44.878 232.969,44.878 233.214 C 44.878 233.458,44.439 233.659,43.902 233.659 C 43.330 233.659,42.927 233.333,42.927 232.871 C 42.927 231.722,44.959 228.293,45.640 228.293 C 45.960 228.293,46.520 227.933,46.885 227.494 C 50.013 223.724,62.821 222.462,68.923 225.322 M56.564 236.514 C 63.616 240.166,54.293 246.076,46.965 242.599 C 42.592 240.524,43.611 237.911,49.756 235.442 C 50.952 234.961,54.709 235.553,56.564 236.514 " stroke="none" fill="#000000" fill-rule="evenodd"></path></g></svg>