<?xml version="1.0" standalone="no"?>
<!DOCTYPE svg PUBLIC "-//W3C//DTD SVG 20010904//EN"
 "http://www.w3.org/TR/2001/REC-SVG-20010904/DTD/svg10.dtd">
<svg version="1.0" xmlns="http://www.w3.org/2000/svg"
 width="180.000000pt" height="233.000000pt" viewBox="0 0 180.000000 233.000000"
 preserveAspectRatio="xMidYMid meet">
<metadata>
Created by potrace 1.16, written by Peter Selinger 2001-2019
</metadata>
<g transform="translate(0.000000,233.000000) scale(0.100000,-0.100000)"
fill="#000000" stroke="none">
<path d="M748 2300 c-26 -26 -30 -36 -25 -66 13 -80 71 -120 187 -129 40 -3
76 -8 79 -11 10 -9 -41 -94 -69 -114 -20 -14 -46 -19 -111 -21 -201 -5 -405
-117 -562 -308 -98 -120 -115 -145 -157 -233 -130 -272 -115 -597 42 -913 89
-178 228 -334 350 -389 93 -43 240 -92 315 -105 57 -11 237 -8 298 4 95 20
217 72 285 124 181 136 322 344 390 573 28 94 38 309 20 411 -67 375 -332 687
-675 792 -58 18 -69 25 -66 41 2 10 4 51 3 90 l0 72 53 55 c54 56 75 106 60
144 -6 16 -8 16 -26 -6 -10 -13 -19 -29 -19 -36 0 -14 -75 -85 -90 -85 -5 0
-17 12 -27 28 -48 78 -103 112 -180 112 -36 0 -50 -6 -75 -30z m165 -25 c57
-40 88 -115 51 -129 -43 -17 -148 6 -186 41 -27 24 -23 68 8 92 36 28 81 26
127 -4z m-196 -376 c-6 -10 -16 -19 -20 -19 -16 0 -124 -119 -141 -155 -11
-23 -17 -55 -15 -88 2 -54 -8 -107 -21 -107 -17 0 -60 -70 -64 -105 -3 -21 3
-73 12 -116 15 -74 15 -81 -2 -136 -11 -32 -21 -88 -24 -124 -3 -54 0 -73 18
-110 24 -46 26 -76 15 -195 l-7 -71 35 -35 c70 -70 71 -76 72 -242 1 -136 3
-155 23 -193 25 -48 25 -49 -14 -28 -52 27 -141 124 -205 224 -35 54 -75 105
-90 114 -55 31 -69 76 -54 168 7 43 5 47 -25 75 -81 72 -80 71 -80 121 0 27 6
71 13 98 8 32 10 63 5 85 -13 58 -11 119 6 145 46 70 56 98 65 189 10 100 25
133 69 157 28 15 92 100 92 122 0 19 75 87 96 87 9 0 47 30 85 68 67 65 131
104 156 95 9 -4 9 -9 0 -24z m235 -22 c31 -29 30 -67 -3 -189 l-23 -87 21 -38
c18 -31 21 -53 20 -118 -1 -68 2 -87 21 -119 30 -50 30 -99 2 -161 -48 -106
-44 -186 15 -308 37 -76 38 -101 3 -170 -22 -45 -28 -97 -16 -147 42 -176 27
-251 -73 -359 -59 -64 -82 -64 -129 1 -45 61 -55 108 -55 253 l0 130 -39 68
c-43 76 -44 99 -13 236 15 62 15 65 -10 110 -29 54 -28 102 6 171 26 53 29
125 8 166 -36 73 -26 130 40 228 23 34 33 60 34 90 3 136 16 190 52 224 48 45
103 53 139 19z m207 -126 c60 -89 67 -109 81 -236 9 -86 20 -136 38 -175 19
-43 25 -73 27 -140 1 -47 8 -102 15 -123 13 -33 12 -44 -2 -85 -27 -77 -31
-117 -15 -148 20 -40 40 -150 31 -177 -3 -12 -19 -42 -34 -67 -16 -25 -36 -74
-44 -110 -42 -174 -115 -303 -198 -346 -38 -19 -46 -12 -23 22 37 58 74 132
95 197 19 58 21 81 15 155 -3 48 -7 110 -9 137 -1 28 -6 75 -10 105 -5 40 -3
67 8 99 20 55 20 100 1 148 -28 72 -33 153 -14 244 23 109 23 125 -2 195 -12
33 -21 77 -19 99 6 91 4 193 -3 233 -8 37 -7 41 8 36 9 -4 33 -32 54 -63z
m272 -112 c53 -52 105 -110 116 -129 22 -39 42 -133 42 -198 0 -26 8 -56 20
-76 12 -18 21 -46 21 -62 0 -16 9 -48 20 -72 22 -49 35 -133 34 -217 -1 -48
-8 -72 -33 -116 -23 -41 -34 -77 -42 -139 -10 -83 -25 -126 -51 -148 -13 -11
-31 -46 -73 -149 -13 -31 -34 -53 -84 -88 -36 -25 -91 -63 -121 -84 -30 -22
-68 -42 -85 -46 l-30 -6 36 25 c22 15 46 45 59 73 13 26 34 62 46 80 30 40 42
70 59 154 8 37 26 84 40 105 22 32 26 49 25 109 0 38 2 158 5 265 10 332 12
306 -35 406 -48 101 -57 132 -66 224 -8 91 -21 145 -46 193 l-21 41 34 -25
c19 -15 77 -68 130 -120z"/>
</g>
</svg>
